<mxfile host="app.diagrams.net" agent="Mozilla/5.0 (Windows NT 10.0; Win64; x64) AppleWebKit/537.36 (KHTML, like Gecko) Chrome/136.0.0.0 Safari/537.36" version="27.1.3">
  <diagram name="페이지-1" id="QVeLW8hdv-tSNbA8uwX3">
    <mxGraphModel dx="1426" dy="751" grid="1" gridSize="10" guides="1" tooltips="1" connect="1" arrows="1" fold="1" page="1" pageScale="1" pageWidth="827" pageHeight="1169" math="0" shadow="0">
      <root>
        <mxCell id="0" />
        <mxCell id="1" parent="0" />
        <mxCell id="CCW7mKwpKnPQ-he00Y3H-1" value="고객" style="shape=umlActor;verticalLabelPosition=bottom;verticalAlign=top;html=1;outlineConnect=0;" parent="1" vertex="1">
          <mxGeometry x="130" y="75" width="30" height="60" as="geometry" />
        </mxCell>
        <mxCell id="CCW7mKwpKnPQ-he00Y3H-6" value="회원가입" style="ellipse;whiteSpace=wrap;html=1;" parent="1" vertex="1">
          <mxGeometry x="250" y="40" width="90" height="50" as="geometry" />
        </mxCell>
        <mxCell id="CCW7mKwpKnPQ-he00Y3H-18" style="edgeStyle=orthogonalEdgeStyle;rounded=0;orthogonalLoop=1;jettySize=auto;html=1;exitX=1;exitY=0.5;exitDx=0;exitDy=0;entryX=0;entryY=0.5;entryDx=0;entryDy=0;" parent="1" source="CCW7mKwpKnPQ-he00Y3H-7" target="CCW7mKwpKnPQ-he00Y3H-13" edge="1">
          <mxGeometry relative="1" as="geometry" />
        </mxCell>
        <mxCell id="CCW7mKwpKnPQ-he00Y3H-19" style="edgeStyle=orthogonalEdgeStyle;rounded=0;orthogonalLoop=1;jettySize=auto;html=1;exitX=1;exitY=0.5;exitDx=0;exitDy=0;entryX=0;entryY=0.5;entryDx=0;entryDy=0;" parent="1" source="CCW7mKwpKnPQ-he00Y3H-7" target="CCW7mKwpKnPQ-he00Y3H-8" edge="1">
          <mxGeometry relative="1" as="geometry" />
        </mxCell>
        <mxCell id="CCW7mKwpKnPQ-he00Y3H-7" value="마이페이지" style="ellipse;whiteSpace=wrap;html=1;" parent="1" vertex="1">
          <mxGeometry x="250" y="130" width="90" height="50" as="geometry" />
        </mxCell>
        <mxCell id="CCW7mKwpKnPQ-he00Y3H-20" style="edgeStyle=orthogonalEdgeStyle;rounded=0;orthogonalLoop=1;jettySize=auto;html=1;exitX=1;exitY=0.5;exitDx=0;exitDy=0;" parent="1" source="CCW7mKwpKnPQ-he00Y3H-8" target="CCW7mKwpKnPQ-he00Y3H-15" edge="1">
          <mxGeometry relative="1" as="geometry" />
        </mxCell>
        <mxCell id="CCW7mKwpKnPQ-he00Y3H-21" style="edgeStyle=orthogonalEdgeStyle;rounded=0;orthogonalLoop=1;jettySize=auto;html=1;exitX=1;exitY=0.5;exitDx=0;exitDy=0;entryX=0;entryY=0.5;entryDx=0;entryDy=0;" parent="1" source="CCW7mKwpKnPQ-he00Y3H-8" target="CCW7mKwpKnPQ-he00Y3H-16" edge="1">
          <mxGeometry relative="1" as="geometry" />
        </mxCell>
        <mxCell id="CCW7mKwpKnPQ-he00Y3H-8" value="예약 관리" style="ellipse;whiteSpace=wrap;html=1;" parent="1" vertex="1">
          <mxGeometry x="414" y="190" width="90" height="50" as="geometry" />
        </mxCell>
        <mxCell id="CCW7mKwpKnPQ-he00Y3H-13" value="정보 수정 및 탈퇴" style="ellipse;whiteSpace=wrap;html=1;" parent="1" vertex="1">
          <mxGeometry x="414" y="80" width="90" height="50" as="geometry" />
        </mxCell>
        <mxCell id="CCW7mKwpKnPQ-he00Y3H-33" style="edgeStyle=orthogonalEdgeStyle;rounded=0;orthogonalLoop=1;jettySize=auto;html=1;entryX=0;entryY=0.5;entryDx=0;entryDy=0;" parent="1" source="CCW7mKwpKnPQ-he00Y3H-15" target="CCW7mKwpKnPQ-he00Y3H-32" edge="1">
          <mxGeometry relative="1" as="geometry" />
        </mxCell>
        <mxCell id="CCW7mKwpKnPQ-he00Y3H-15" value="예약하기" style="ellipse;whiteSpace=wrap;html=1;" parent="1" vertex="1">
          <mxGeometry x="570" y="155" width="90" height="50" as="geometry" />
        </mxCell>
        <mxCell id="CCW7mKwpKnPQ-he00Y3H-36" style="edgeStyle=orthogonalEdgeStyle;rounded=0;orthogonalLoop=1;jettySize=auto;html=1;exitX=1;exitY=0.5;exitDx=0;exitDy=0;entryX=0;entryY=0.5;entryDx=0;entryDy=0;" parent="1" source="CCW7mKwpKnPQ-he00Y3H-16" target="CCW7mKwpKnPQ-he00Y3H-34" edge="1">
          <mxGeometry relative="1" as="geometry" />
        </mxCell>
        <mxCell id="CCW7mKwpKnPQ-he00Y3H-16" value="예약 목록" style="ellipse;whiteSpace=wrap;html=1;" parent="1" vertex="1">
          <mxGeometry x="570" y="225" width="90" height="50" as="geometry" />
        </mxCell>
        <mxCell id="CCW7mKwpKnPQ-he00Y3H-23" value="" style="endArrow=classic;html=1;rounded=0;exitX=1;exitY=0.3333333333333333;exitDx=0;exitDy=0;exitPerimeter=0;" parent="1" source="CCW7mKwpKnPQ-he00Y3H-1" edge="1">
          <mxGeometry width="50" height="50" relative="1" as="geometry">
            <mxPoint x="200" y="120" as="sourcePoint" />
            <mxPoint x="250" y="70" as="targetPoint" />
          </mxGeometry>
        </mxCell>
        <mxCell id="CCW7mKwpKnPQ-he00Y3H-26" value="" style="endArrow=classic;html=1;rounded=0;exitX=1;exitY=0.3333333333333333;exitDx=0;exitDy=0;exitPerimeter=0;entryX=0;entryY=0.5;entryDx=0;entryDy=0;" parent="1" source="CCW7mKwpKnPQ-he00Y3H-1" target="CCW7mKwpKnPQ-he00Y3H-7" edge="1">
          <mxGeometry width="50" height="50" relative="1" as="geometry">
            <mxPoint x="170" y="105" as="sourcePoint" />
            <mxPoint x="260" y="80" as="targetPoint" />
          </mxGeometry>
        </mxCell>
        <mxCell id="CCW7mKwpKnPQ-he00Y3H-27" value="본사 직원" style="shape=umlActor;verticalLabelPosition=bottom;verticalAlign=top;html=1;outlineConnect=0;" parent="1" vertex="1">
          <mxGeometry x="130" y="1075" width="30" height="60" as="geometry" />
        </mxCell>
        <mxCell id="CCW7mKwpKnPQ-he00Y3H-40" style="edgeStyle=orthogonalEdgeStyle;rounded=0;orthogonalLoop=1;jettySize=auto;html=1;exitX=1;exitY=0.5;exitDx=0;exitDy=0;entryX=0;entryY=0.5;entryDx=0;entryDy=0;" parent="1" source="CCW7mKwpKnPQ-he00Y3H-29" target="CCW7mKwpKnPQ-he00Y3H-31" edge="1">
          <mxGeometry relative="1" as="geometry" />
        </mxCell>
        <mxCell id="CCW7mKwpKnPQ-he00Y3H-29" value="교육팀 권한&lt;span style=&quot;color: rgba(0, 0, 0, 0); font-family: monospace; font-size: 0px; text-align: start; text-wrap-mode: nowrap;&quot;&gt;%3CmxGraphModel%3E%3Croot%3E%3CmxCell%20id%3D%220%22%2F%3E%3CmxCell%20id%3D%221%22%20parent%3D%220%22%2F%3E%3CmxCell%20id%3D%222%22%20value%3D%22%EB%A7%88%EC%9D%B4%ED%8E%98%EC%9D%B4%EC%A7%80%22%20style%3D%22ellipse%3BwhiteSpace%3Dwrap%3Bhtml%3D1%3B%22%20vertex%3D%221%22%20parent%3D%221%22%3E%3CmxGeometry%20x%3D%22250%22%20y%3D%22130%22%20width%3D%2290%22%20height%3D%2250%22%20as%3D%22geometry%22%2F%3E%3C%2FmxCell%3E%3C%2Froot%3E%3C%2FmxGraphModel%3E&lt;/span&gt;" style="ellipse;whiteSpace=wrap;html=1;" parent="1" vertex="1">
          <mxGeometry x="250" y="900" width="90" height="50" as="geometry" />
        </mxCell>
        <mxCell id="CCW7mKwpKnPQ-he00Y3H-59" style="edgeStyle=orthogonalEdgeStyle;rounded=0;orthogonalLoop=1;jettySize=auto;html=1;exitX=1;exitY=0.5;exitDx=0;exitDy=0;entryX=0;entryY=0.5;entryDx=0;entryDy=0;" parent="1" source="CCW7mKwpKnPQ-he00Y3H-30" target="CCW7mKwpKnPQ-he00Y3H-52" edge="1">
          <mxGeometry relative="1" as="geometry" />
        </mxCell>
        <mxCell id="CCW7mKwpKnPQ-he00Y3H-60" style="edgeStyle=orthogonalEdgeStyle;rounded=0;orthogonalLoop=1;jettySize=auto;html=1;exitX=1;exitY=0.5;exitDx=0;exitDy=0;entryX=0;entryY=0.5;entryDx=0;entryDy=0;" parent="1" source="CCW7mKwpKnPQ-he00Y3H-30" target="CCW7mKwpKnPQ-he00Y3H-43" edge="1">
          <mxGeometry relative="1" as="geometry" />
        </mxCell>
        <mxCell id="CCW7mKwpKnPQ-he00Y3H-61" style="edgeStyle=orthogonalEdgeStyle;rounded=0;orthogonalLoop=1;jettySize=auto;html=1;exitX=1;exitY=0.5;exitDx=0;exitDy=0;entryX=0;entryY=0.5;entryDx=0;entryDy=0;" parent="1" source="CCW7mKwpKnPQ-he00Y3H-30" target="CCW7mKwpKnPQ-he00Y3H-51" edge="1">
          <mxGeometry relative="1" as="geometry" />
        </mxCell>
        <mxCell id="CCW7mKwpKnPQ-he00Y3H-62" style="edgeStyle=orthogonalEdgeStyle;rounded=0;orthogonalLoop=1;jettySize=auto;html=1;exitX=1;exitY=0.5;exitDx=0;exitDy=0;entryX=0;entryY=0.5;entryDx=0;entryDy=0;" parent="1" source="CCW7mKwpKnPQ-he00Y3H-30" target="CCW7mKwpKnPQ-he00Y3H-44" edge="1">
          <mxGeometry relative="1" as="geometry" />
        </mxCell>
        <mxCell id="CCW7mKwpKnPQ-he00Y3H-30" value="분배팀 권한&lt;span style=&quot;color: rgba(0, 0, 0, 0); font-family: monospace; font-size: 0px; text-align: start; text-wrap-mode: nowrap;&quot;&gt;%3CmxGraphModel%3E%3Croot%3E%3CmxCell%20id%3D%220%22%2F%3E%3CmxCell%20id%3D%221%22%20parent%3D%220%22%2F%3E%3CmxCell%20id%3D%222%22%20value%3D%22%EB%A7%88%EC%9D%B4%ED%8E%98%EC%9D%B4%EC%A7%80%22%20style%3D%22ellipse%3BwhiteSpace%3Dwrap%3Bhtml%3D1%3B%22%20vertex%3D%221%22%20parent%3D%221%22%3E%3CmxGeometry%20x%3D%22250%22%20y%3D%22130%22%20width%3D%2290%22%20height%3D%2250%22%20as%3D%22geometry%22%2F%3E%3C%2FmxCell%3E%3C%2Froot%3E%3C%2FmxGraphModel%3E&lt;/span&gt;" style="ellipse;whiteSpace=wrap;html=1;" parent="1" vertex="1">
          <mxGeometry x="260" y="1230" width="90" height="50" as="geometry" />
        </mxCell>
        <mxCell id="CCW7mKwpKnPQ-he00Y3H-41" style="edgeStyle=orthogonalEdgeStyle;rounded=0;orthogonalLoop=1;jettySize=auto;html=1;exitX=1;exitY=0.5;exitDx=0;exitDy=0;entryX=0;entryY=0.5;entryDx=0;entryDy=0;" parent="1" source="CCW7mKwpKnPQ-he00Y3H-31" target="CCW7mKwpKnPQ-he00Y3H-39" edge="1">
          <mxGeometry relative="1" as="geometry" />
        </mxCell>
        <mxCell id="CCW7mKwpKnPQ-he00Y3H-42" style="edgeStyle=orthogonalEdgeStyle;rounded=0;orthogonalLoop=1;jettySize=auto;html=1;exitX=1;exitY=0.5;exitDx=0;exitDy=0;entryX=0;entryY=0.5;entryDx=0;entryDy=0;" parent="1" source="CCW7mKwpKnPQ-he00Y3H-31" target="CCW7mKwpKnPQ-he00Y3H-38" edge="1">
          <mxGeometry relative="1" as="geometry" />
        </mxCell>
        <mxCell id="CCW7mKwpKnPQ-he00Y3H-31" value="신입 인력 관리" style="ellipse;whiteSpace=wrap;html=1;" parent="1" vertex="1">
          <mxGeometry x="414" y="900" width="90" height="50" as="geometry" />
        </mxCell>
        <mxCell id="CCW7mKwpKnPQ-he00Y3H-32" value="수수료 결제" style="ellipse;whiteSpace=wrap;html=1;" parent="1" vertex="1">
          <mxGeometry x="710" y="155" width="90" height="50" as="geometry" />
        </mxCell>
        <mxCell id="CCW7mKwpKnPQ-he00Y3H-34" value="예약 수정/삭제&lt;br&gt;/환불 요청" style="ellipse;whiteSpace=wrap;html=1;" parent="1" vertex="1">
          <mxGeometry x="710" y="225" width="90" height="50" as="geometry" />
        </mxCell>
        <mxCell id="CCW7mKwpKnPQ-he00Y3H-48" style="edgeStyle=orthogonalEdgeStyle;rounded=0;orthogonalLoop=1;jettySize=auto;html=1;exitX=1;exitY=0.5;exitDx=0;exitDy=0;entryX=0;entryY=0.5;entryDx=0;entryDy=0;" parent="1" source="CCW7mKwpKnPQ-he00Y3H-38" target="CCW7mKwpKnPQ-he00Y3H-47" edge="1">
          <mxGeometry relative="1" as="geometry" />
        </mxCell>
        <mxCell id="CCW7mKwpKnPQ-he00Y3H-49" style="edgeStyle=orthogonalEdgeStyle;rounded=0;orthogonalLoop=1;jettySize=auto;html=1;exitX=1;exitY=0.5;exitDx=0;exitDy=0;entryX=0;entryY=0.5;entryDx=0;entryDy=0;" parent="1" source="CCW7mKwpKnPQ-he00Y3H-38" target="CCW7mKwpKnPQ-he00Y3H-45" edge="1">
          <mxGeometry relative="1" as="geometry" />
        </mxCell>
        <mxCell id="CCW7mKwpKnPQ-he00Y3H-38" value="교육 배정" style="ellipse;whiteSpace=wrap;html=1;" parent="1" vertex="1">
          <mxGeometry x="570" y="930" width="90" height="50" as="geometry" />
        </mxCell>
        <mxCell id="CCW7mKwpKnPQ-he00Y3H-39" value="인력 정보 관리" style="ellipse;whiteSpace=wrap;html=1;" parent="1" vertex="1">
          <mxGeometry x="570" y="870" width="90" height="50" as="geometry" />
        </mxCell>
        <mxCell id="CCW7mKwpKnPQ-he00Y3H-54" style="edgeStyle=orthogonalEdgeStyle;rounded=0;orthogonalLoop=1;jettySize=auto;html=1;entryX=0;entryY=0.5;entryDx=0;entryDy=0;" parent="1" source="CCW7mKwpKnPQ-he00Y3H-43" target="CCW7mKwpKnPQ-he00Y3H-53" edge="1">
          <mxGeometry relative="1" as="geometry" />
        </mxCell>
        <mxCell id="CCW7mKwpKnPQ-he00Y3H-43" value="인력 관리&lt;span style=&quot;color: rgba(0, 0, 0, 0); font-family: monospace; font-size: 0px; text-align: start; text-wrap-mode: nowrap;&quot;&gt;%3CmxGraphModel%3E%3Croot%3E%3CmxCell%20id%3D%220%22%2F%3E%3CmxCell%20id%3D%221%22%20parent%3D%220%22%2F%3E%3CmxCell%20id%3D%222%22%20value%3D%22%EB%B6%84%EB%B0%B0%ED%8C%80%20%EA%B6%8C%ED%95%9C%26lt%3Bspan%20style%3D%26quot%3Bcolor%3A%20rgba(0%2C%200%2C%200%2C%200)%3B%20font-family%3A%20monospace%3B%20font-size%3A%200px%3B%20text-align%3A%20start%3B%20text-wrap-mode%3A%20nowrap%3B%26quot%3B%26gt%3B%253CmxGraphModel%253E%253Croot%253E%253CmxCell%2520id%253D%25220%2522%252F%253E%253CmxCell%2520id%253D%25221%2522%2520parent%253D%25220%2522%252F%253E%253CmxCell%2520id%253D%25222%2522%2520value%253D%2522%25EB%25A7%2588%25EC%259D%25B4%25ED%258E%2598%25EC%259D%25B4%25EC%25A7%2580%2522%2520style%253D%2522ellipse%253BwhiteSpace%253Dwrap%253Bhtml%253D1%253B%2522%2520vertex%253D%25221%2522%2520parent%253D%25221%2522%253E%253CmxGeometry%2520x%253D%2522250%2522%2520y%253D%2522130%2522%2520width%253D%252290%2522%2520height%253D%252250%2522%2520as%253D%2522geometry%2522%252F%253E%253C%252FmxCell%253E%253C%252Froot%253E%253C%252FmxGraphModel%253E%26lt%3B%2Fspan%26gt%3B%22%20style%3D%22ellipse%3BwhiteSpace%3Dwrap%3Bhtml%3D1%3B%22%20vertex%3D%221%22%20parent%3D%221%22%3E%3CmxGeometry%20x%3D%22220%22%20y%3D%22535%22%20width%3D%2290%22%20height%3D%2250%22%20as%3D%22geometry%22%2F%3E%3C%2FmxCell%3E%3C%2Froot%3E%3C%2FmxGraphModel%3E&lt;/span&gt;" style="ellipse;whiteSpace=wrap;html=1;" parent="1" vertex="1">
          <mxGeometry x="424" y="1190" width="90" height="50" as="geometry" />
        </mxCell>
        <mxCell id="CCW7mKwpKnPQ-he00Y3H-44" value="실적(수익금) &lt;br&gt;관리" style="ellipse;whiteSpace=wrap;html=1;" parent="1" vertex="1">
          <mxGeometry x="424" y="1350" width="90" height="50" as="geometry" />
        </mxCell>
        <mxCell id="CCW7mKwpKnPQ-he00Y3H-45" value="교육 인원&lt;br&gt;추가/삭제" style="ellipse;whiteSpace=wrap;html=1;" parent="1" vertex="1">
          <mxGeometry x="710" y="990" width="90" height="50" as="geometry" />
        </mxCell>
        <mxCell id="CCW7mKwpKnPQ-he00Y3H-47" value="교육 수료" style="ellipse;whiteSpace=wrap;html=1;" parent="1" vertex="1">
          <mxGeometry x="710" y="930" width="90" height="50" as="geometry" />
        </mxCell>
        <mxCell id="CCW7mKwpKnPQ-he00Y3H-58" style="edgeStyle=orthogonalEdgeStyle;rounded=0;orthogonalLoop=1;jettySize=auto;html=1;exitX=1;exitY=0.5;exitDx=0;exitDy=0;entryX=0;entryY=0.5;entryDx=0;entryDy=0;" parent="1" source="CCW7mKwpKnPQ-he00Y3H-51" target="CCW7mKwpKnPQ-he00Y3H-57" edge="1">
          <mxGeometry relative="1" as="geometry" />
        </mxCell>
        <mxCell id="CCW7mKwpKnPQ-he00Y3H-51" value="알선 배정" style="ellipse;whiteSpace=wrap;html=1;" parent="1" vertex="1">
          <mxGeometry x="424" y="1270" width="90" height="50" as="geometry" />
        </mxCell>
        <mxCell id="CCW7mKwpKnPQ-he00Y3H-56" style="edgeStyle=orthogonalEdgeStyle;rounded=0;orthogonalLoop=1;jettySize=auto;html=1;exitX=1;exitY=0.5;exitDx=0;exitDy=0;entryX=0;entryY=0.5;entryDx=0;entryDy=0;" parent="1" source="CCW7mKwpKnPQ-he00Y3H-52" target="CCW7mKwpKnPQ-he00Y3H-55" edge="1">
          <mxGeometry relative="1" as="geometry" />
        </mxCell>
        <mxCell id="CCW7mKwpKnPQ-he00Y3H-52" value="예약 관리" style="ellipse;whiteSpace=wrap;html=1;" parent="1" vertex="1">
          <mxGeometry x="424" y="1110" width="90" height="50" as="geometry" />
        </mxCell>
        <mxCell id="CCW7mKwpKnPQ-he00Y3H-53" value="&lt;font style=&quot;font-size: 10px;&quot;&gt;인력별&amp;nbsp;&lt;/font&gt;&lt;span style=&quot;font-size: 10px; background-color: transparent; color: light-dark(rgb(0, 0, 0), rgb(255, 255, 255));&quot;&gt;출근현황,&amp;nbsp;&lt;/span&gt;&lt;div&gt;&lt;span style=&quot;font-size: 10px; background-color: transparent; color: light-dark(rgb(0, 0, 0), rgb(255, 255, 255));&quot;&gt;비자, ... 등&lt;/span&gt;&lt;/div&gt;" style="ellipse;whiteSpace=wrap;html=1;" parent="1" vertex="1">
          <mxGeometry x="570" y="1190" width="90" height="50" as="geometry" />
        </mxCell>
        <mxCell id="CCW7mKwpKnPQ-he00Y3H-55" value="&lt;font style=&quot;font-size: 10px;&quot;&gt;고객별 예약현황 등&lt;/font&gt;" style="ellipse;whiteSpace=wrap;html=1;" parent="1" vertex="1">
          <mxGeometry x="570" y="1110" width="90" height="50" as="geometry" />
        </mxCell>
        <mxCell id="CCW7mKwpKnPQ-he00Y3H-57" value="&lt;font style=&quot;font-size: 10px;&quot;&gt;배정&amp;amp;미배정 목록,&lt;/font&gt;&lt;div&gt;&lt;span style=&quot;font-size: 10px;&quot;&gt;배정 현황, ... 등&lt;/span&gt;&lt;/div&gt;" style="ellipse;whiteSpace=wrap;html=1;" parent="1" vertex="1">
          <mxGeometry x="570" y="1270" width="90" height="50" as="geometry" />
        </mxCell>
        <mxCell id="CCW7mKwpKnPQ-he00Y3H-64" value="" style="endArrow=classic;html=1;rounded=0;entryX=0;entryY=0.5;entryDx=0;entryDy=0;exitX=1;exitY=0.3333333333333333;exitDx=0;exitDy=0;exitPerimeter=0;" parent="1" source="CCW7mKwpKnPQ-he00Y3H-27" target="CCW7mKwpKnPQ-he00Y3H-29" edge="1">
          <mxGeometry width="50" height="50" relative="1" as="geometry">
            <mxPoint x="480" y="1100" as="sourcePoint" />
            <mxPoint x="530" y="1050" as="targetPoint" />
          </mxGeometry>
        </mxCell>
        <mxCell id="CCW7mKwpKnPQ-he00Y3H-65" value="" style="endArrow=classic;html=1;rounded=0;entryX=0;entryY=0.5;entryDx=0;entryDy=0;exitX=1;exitY=0.3333333333333333;exitDx=0;exitDy=0;exitPerimeter=0;" parent="1" source="CCW7mKwpKnPQ-he00Y3H-27" target="CCW7mKwpKnPQ-he00Y3H-30" edge="1">
          <mxGeometry width="50" height="50" relative="1" as="geometry">
            <mxPoint x="160" y="1100" as="sourcePoint" />
            <mxPoint x="210" y="1050" as="targetPoint" />
          </mxGeometry>
        </mxCell>
        <mxCell id="CCW7mKwpKnPQ-he00Y3H-66" value="인력" style="shape=umlActor;verticalLabelPosition=bottom;verticalAlign=top;html=1;outlineConnect=0;" parent="1" vertex="1">
          <mxGeometry x="130" y="390" width="30" height="60" as="geometry" />
        </mxCell>
        <mxCell id="CCW7mKwpKnPQ-he00Y3H-67" value="회원가입" style="ellipse;whiteSpace=wrap;html=1;" parent="1" vertex="1">
          <mxGeometry x="250" y="350" width="90" height="50" as="geometry" />
        </mxCell>
        <mxCell id="CCW7mKwpKnPQ-he00Y3H-72" style="edgeStyle=orthogonalEdgeStyle;rounded=0;orthogonalLoop=1;jettySize=auto;html=1;exitX=1;exitY=0.5;exitDx=0;exitDy=0;entryX=0;entryY=0.5;entryDx=0;entryDy=0;" parent="1" source="CCW7mKwpKnPQ-he00Y3H-68" target="CCW7mKwpKnPQ-he00Y3H-69" edge="1">
          <mxGeometry relative="1" as="geometry" />
        </mxCell>
        <mxCell id="CCW7mKwpKnPQ-he00Y3H-73" style="edgeStyle=orthogonalEdgeStyle;rounded=0;orthogonalLoop=1;jettySize=auto;html=1;exitX=1;exitY=0.5;exitDx=0;exitDy=0;entryX=0;entryY=0.5;entryDx=0;entryDy=0;" parent="1" source="CCW7mKwpKnPQ-he00Y3H-68" target="CCW7mKwpKnPQ-he00Y3H-70" edge="1">
          <mxGeometry relative="1" as="geometry" />
        </mxCell>
        <mxCell id="CCW7mKwpKnPQ-he00Y3H-74" style="edgeStyle=orthogonalEdgeStyle;rounded=0;orthogonalLoop=1;jettySize=auto;html=1;exitX=1;exitY=0.5;exitDx=0;exitDy=0;entryX=0;entryY=0.5;entryDx=0;entryDy=0;" parent="1" source="CCW7mKwpKnPQ-he00Y3H-68" target="CCW7mKwpKnPQ-he00Y3H-71" edge="1">
          <mxGeometry relative="1" as="geometry" />
        </mxCell>
        <mxCell id="CCW7mKwpKnPQ-he00Y3H-80" style="edgeStyle=orthogonalEdgeStyle;rounded=0;orthogonalLoop=1;jettySize=auto;html=1;exitX=1;exitY=0.5;exitDx=0;exitDy=0;" parent="1" source="CCW7mKwpKnPQ-he00Y3H-68" target="CCW7mKwpKnPQ-he00Y3H-79" edge="1">
          <mxGeometry relative="1" as="geometry" />
        </mxCell>
        <mxCell id="CCW7mKwpKnPQ-he00Y3H-68" value="마이페이지" style="ellipse;whiteSpace=wrap;html=1;" parent="1" vertex="1">
          <mxGeometry x="250" y="450" width="90" height="50" as="geometry" />
        </mxCell>
        <mxCell id="CCW7mKwpKnPQ-he00Y3H-69" value="정보 수정 및 탈퇴" style="ellipse;whiteSpace=wrap;html=1;" parent="1" vertex="1">
          <mxGeometry x="414" y="360" width="90" height="50" as="geometry" />
        </mxCell>
        <mxCell id="CCW7mKwpKnPQ-he00Y3H-77" style="edgeStyle=orthogonalEdgeStyle;rounded=0;orthogonalLoop=1;jettySize=auto;html=1;exitX=1;exitY=0.5;exitDx=0;exitDy=0;entryX=0;entryY=0.5;entryDx=0;entryDy=0;" parent="1" source="CCW7mKwpKnPQ-he00Y3H-70" target="CCW7mKwpKnPQ-he00Y3H-75" edge="1">
          <mxGeometry relative="1" as="geometry" />
        </mxCell>
        <mxCell id="CCW7mKwpKnPQ-he00Y3H-78" style="edgeStyle=orthogonalEdgeStyle;rounded=0;orthogonalLoop=1;jettySize=auto;html=1;exitX=1;exitY=0.5;exitDx=0;exitDy=0;entryX=0;entryY=0.5;entryDx=0;entryDy=0;" parent="1" source="CCW7mKwpKnPQ-he00Y3H-70" target="CCW7mKwpKnPQ-he00Y3H-76" edge="1">
          <mxGeometry relative="1" as="geometry" />
        </mxCell>
        <mxCell id="CCW7mKwpKnPQ-he00Y3H-70" value="알선" style="ellipse;whiteSpace=wrap;html=1;" parent="1" vertex="1">
          <mxGeometry x="414" y="595" width="90" height="50" as="geometry" />
        </mxCell>
        <mxCell id="CCW7mKwpKnPQ-he00Y3H-71" value="휴무" style="ellipse;whiteSpace=wrap;html=1;" parent="1" vertex="1">
          <mxGeometry x="414" y="685" width="90" height="50" as="geometry" />
        </mxCell>
        <mxCell id="CCW7mKwpKnPQ-he00Y3H-75" value="근무한 내역" style="ellipse;whiteSpace=wrap;html=1;" parent="1" vertex="1">
          <mxGeometry x="570" y="560" width="90" height="50" as="geometry" />
        </mxCell>
        <mxCell id="CCW7mKwpKnPQ-he00Y3H-76" value="알선 내역" style="ellipse;whiteSpace=wrap;html=1;" parent="1" vertex="1">
          <mxGeometry x="570" y="630" width="90" height="50" as="geometry" />
        </mxCell>
        <mxCell id="CCW7mKwpKnPQ-he00Y3H-83" style="edgeStyle=orthogonalEdgeStyle;rounded=0;orthogonalLoop=1;jettySize=auto;html=1;exitX=1;exitY=0.5;exitDx=0;exitDy=0;entryX=0;entryY=0.5;entryDx=0;entryDy=0;" parent="1" source="CCW7mKwpKnPQ-he00Y3H-79" target="CCW7mKwpKnPQ-he00Y3H-81" edge="1">
          <mxGeometry relative="1" as="geometry" />
        </mxCell>
        <mxCell id="CCW7mKwpKnPQ-he00Y3H-84" style="edgeStyle=orthogonalEdgeStyle;rounded=0;orthogonalLoop=1;jettySize=auto;html=1;exitX=1;exitY=0.5;exitDx=0;exitDy=0;entryX=0;entryY=0.5;entryDx=0;entryDy=0;" parent="1" source="CCW7mKwpKnPQ-he00Y3H-79" target="CCW7mKwpKnPQ-he00Y3H-82" edge="1">
          <mxGeometry relative="1" as="geometry" />
        </mxCell>
        <mxCell id="CCW7mKwpKnPQ-he00Y3H-79" value="교육" style="ellipse;whiteSpace=wrap;html=1;" parent="1" vertex="1">
          <mxGeometry x="414" y="450" width="90" height="50" as="geometry" />
        </mxCell>
        <mxCell id="CCW7mKwpKnPQ-he00Y3H-81" value="교육 일정" style="ellipse;whiteSpace=wrap;html=1;" parent="1" vertex="1">
          <mxGeometry x="570" y="420" width="90" height="50" as="geometry" />
        </mxCell>
        <mxCell id="CCW7mKwpKnPQ-he00Y3H-82" value="수료 여부" style="ellipse;whiteSpace=wrap;html=1;" parent="1" vertex="1">
          <mxGeometry x="570" y="490" width="90" height="50" as="geometry" />
        </mxCell>
        <mxCell id="CCW7mKwpKnPQ-he00Y3H-85" value="" style="endArrow=classic;html=1;rounded=0;exitX=1;exitY=0.3333333333333333;exitDx=0;exitDy=0;exitPerimeter=0;" parent="1" source="CCW7mKwpKnPQ-he00Y3H-66" edge="1">
          <mxGeometry width="50" height="50" relative="1" as="geometry">
            <mxPoint x="200" y="420" as="sourcePoint" />
            <mxPoint x="250" y="370" as="targetPoint" />
          </mxGeometry>
        </mxCell>
        <mxCell id="CCW7mKwpKnPQ-he00Y3H-86" value="" style="endArrow=classic;html=1;rounded=0;entryX=0;entryY=0.5;entryDx=0;entryDy=0;" parent="1" target="CCW7mKwpKnPQ-he00Y3H-68" edge="1">
          <mxGeometry width="50" height="50" relative="1" as="geometry">
            <mxPoint x="160" y="410" as="sourcePoint" />
            <mxPoint x="250" y="410" as="targetPoint" />
          </mxGeometry>
        </mxCell>
        <mxCell id="CCW7mKwpKnPQ-he00Y3H-87" value="관리자" style="shape=umlActor;verticalLabelPosition=bottom;verticalAlign=top;html=1;outlineConnect=0;" parent="1" vertex="1">
          <mxGeometry x="110" y="1870" width="30" height="60" as="geometry" />
        </mxCell>
        <mxCell id="CCW7mKwpKnPQ-he00Y3H-98" style="edgeStyle=orthogonalEdgeStyle;rounded=0;orthogonalLoop=1;jettySize=auto;html=1;exitX=1;exitY=0.5;exitDx=0;exitDy=0;entryX=0;entryY=0.5;entryDx=0;entryDy=0;" parent="1" source="CCW7mKwpKnPQ-he00Y3H-88" target="CCW7mKwpKnPQ-he00Y3H-95" edge="1">
          <mxGeometry relative="1" as="geometry" />
        </mxCell>
        <mxCell id="CCW7mKwpKnPQ-he00Y3H-88" value="고객 관리" style="ellipse;whiteSpace=wrap;html=1;" parent="1" vertex="1">
          <mxGeometry x="260" y="1580" width="90" height="50" as="geometry" />
        </mxCell>
        <mxCell id="CCW7mKwpKnPQ-he00Y3H-105" style="edgeStyle=orthogonalEdgeStyle;rounded=0;orthogonalLoop=1;jettySize=auto;html=1;exitX=1;exitY=0.5;exitDx=0;exitDy=0;entryX=0;entryY=0.5;entryDx=0;entryDy=0;" parent="1" source="CCW7mKwpKnPQ-he00Y3H-89" target="CCW7mKwpKnPQ-he00Y3H-102" edge="1">
          <mxGeometry relative="1" as="geometry" />
        </mxCell>
        <mxCell id="CCW7mKwpKnPQ-he00Y3H-89" value="인력 관리" style="ellipse;whiteSpace=wrap;html=1;" parent="1" vertex="1">
          <mxGeometry x="260" y="1760" width="90" height="50" as="geometry" />
        </mxCell>
        <mxCell id="CCW7mKwpKnPQ-he00Y3H-113" style="edgeStyle=orthogonalEdgeStyle;rounded=0;orthogonalLoop=1;jettySize=auto;html=1;exitX=1;exitY=0.5;exitDx=0;exitDy=0;entryX=0;entryY=0.5;entryDx=0;entryDy=0;" parent="1" source="CCW7mKwpKnPQ-he00Y3H-90" target="CCW7mKwpKnPQ-he00Y3H-109" edge="1">
          <mxGeometry relative="1" as="geometry" />
        </mxCell>
        <mxCell id="CCW7mKwpKnPQ-he00Y3H-90" value="직원 관리" style="ellipse;whiteSpace=wrap;html=1;" parent="1" vertex="1">
          <mxGeometry x="260" y="1960" width="90" height="50" as="geometry" />
        </mxCell>
        <mxCell id="CCW7mKwpKnPQ-he00Y3H-91" value="" style="endArrow=classic;html=1;rounded=0;exitX=1;exitY=0.3333333333333333;exitDx=0;exitDy=0;exitPerimeter=0;entryX=0;entryY=0.4;entryDx=0;entryDy=0;entryPerimeter=0;" parent="1" source="CCW7mKwpKnPQ-he00Y3H-87" target="CCW7mKwpKnPQ-he00Y3H-90" edge="1">
          <mxGeometry width="50" height="50" relative="1" as="geometry">
            <mxPoint x="160" y="1770" as="sourcePoint" />
            <mxPoint x="230" y="1890" as="targetPoint" />
          </mxGeometry>
        </mxCell>
        <mxCell id="CCW7mKwpKnPQ-he00Y3H-92" value="" style="endArrow=classic;html=1;rounded=0;exitX=1;exitY=0.3333333333333333;exitDx=0;exitDy=0;exitPerimeter=0;entryX=0;entryY=0.5;entryDx=0;entryDy=0;" parent="1" source="CCW7mKwpKnPQ-he00Y3H-87" target="CCW7mKwpKnPQ-he00Y3H-89" edge="1">
          <mxGeometry width="50" height="50" relative="1" as="geometry">
            <mxPoint x="180" y="1840" as="sourcePoint" />
            <mxPoint x="230" y="1790" as="targetPoint" />
          </mxGeometry>
        </mxCell>
        <mxCell id="CCW7mKwpKnPQ-he00Y3H-93" value="" style="endArrow=classic;html=1;rounded=0;exitX=1;exitY=0.3333333333333333;exitDx=0;exitDy=0;exitPerimeter=0;entryX=0;entryY=0.5;entryDx=0;entryDy=0;" parent="1" source="CCW7mKwpKnPQ-he00Y3H-87" target="CCW7mKwpKnPQ-he00Y3H-88" edge="1">
          <mxGeometry width="50" height="50" relative="1" as="geometry">
            <mxPoint x="180" y="1740" as="sourcePoint" />
            <mxPoint x="230" y="1690" as="targetPoint" />
          </mxGeometry>
        </mxCell>
        <mxCell id="CCW7mKwpKnPQ-he00Y3H-99" style="edgeStyle=orthogonalEdgeStyle;rounded=0;orthogonalLoop=1;jettySize=auto;html=1;exitX=1;exitY=0.5;exitDx=0;exitDy=0;entryX=0;entryY=0.5;entryDx=0;entryDy=0;" parent="1" source="CCW7mKwpKnPQ-he00Y3H-95" target="CCW7mKwpKnPQ-he00Y3H-96" edge="1">
          <mxGeometry relative="1" as="geometry" />
        </mxCell>
        <mxCell id="CCW7mKwpKnPQ-he00Y3H-100" style="edgeStyle=orthogonalEdgeStyle;rounded=0;orthogonalLoop=1;jettySize=auto;html=1;exitX=1;exitY=0.5;exitDx=0;exitDy=0;" parent="1" source="CCW7mKwpKnPQ-he00Y3H-95" target="CCW7mKwpKnPQ-he00Y3H-97" edge="1">
          <mxGeometry relative="1" as="geometry" />
        </mxCell>
        <mxCell id="CCW7mKwpKnPQ-he00Y3H-95" value="전체 고객 목록" style="ellipse;whiteSpace=wrap;html=1;" parent="1" vertex="1">
          <mxGeometry x="424" y="1580" width="90" height="50" as="geometry" />
        </mxCell>
        <mxCell id="CCW7mKwpKnPQ-he00Y3H-96" value="&lt;font style=&quot;font-size: 10px;&quot;&gt;고객별 이용횟수,&lt;br&gt;이용내역, ... 등&lt;/font&gt;" style="ellipse;whiteSpace=wrap;html=1;" parent="1" vertex="1">
          <mxGeometry x="570" y="1540" width="90" height="50" as="geometry" />
        </mxCell>
        <mxCell id="CCW7mKwpKnPQ-he00Y3H-97" value="&lt;font style=&quot;font-size: 10px;&quot;&gt;고객 정보 관리&lt;/font&gt;" style="ellipse;whiteSpace=wrap;html=1;" parent="1" vertex="1">
          <mxGeometry x="570" y="1620" width="90" height="50" as="geometry" />
        </mxCell>
        <mxCell id="CCW7mKwpKnPQ-he00Y3H-120" style="edgeStyle=orthogonalEdgeStyle;rounded=0;orthogonalLoop=1;jettySize=auto;html=1;exitX=1;exitY=0.5;exitDx=0;exitDy=0;" parent="1" source="CCW7mKwpKnPQ-he00Y3H-101" edge="1">
          <mxGeometry relative="1" as="geometry">
            <mxPoint x="420" y="2164.75" as="targetPoint" />
          </mxGeometry>
        </mxCell>
        <mxCell id="CCW7mKwpKnPQ-he00Y3H-121" style="edgeStyle=orthogonalEdgeStyle;rounded=0;orthogonalLoop=1;jettySize=auto;html=1;exitX=1;exitY=0.5;exitDx=0;exitDy=0;entryX=0;entryY=0.5;entryDx=0;entryDy=0;" parent="1" source="CCW7mKwpKnPQ-he00Y3H-101" target="CCW7mKwpKnPQ-he00Y3H-118" edge="1">
          <mxGeometry relative="1" as="geometry" />
        </mxCell>
        <mxCell id="CCW7mKwpKnPQ-he00Y3H-122" style="edgeStyle=orthogonalEdgeStyle;rounded=0;orthogonalLoop=1;jettySize=auto;html=1;exitX=1;exitY=0.5;exitDx=0;exitDy=0;entryX=0;entryY=0.5;entryDx=0;entryDy=0;" parent="1" source="CCW7mKwpKnPQ-he00Y3H-101" target="CCW7mKwpKnPQ-he00Y3H-119" edge="1">
          <mxGeometry relative="1" as="geometry" />
        </mxCell>
        <mxCell id="CCW7mKwpKnPQ-he00Y3H-101" value="수익금 관리" style="ellipse;whiteSpace=wrap;html=1;" parent="1" vertex="1">
          <mxGeometry x="260" y="2140" width="90" height="50" as="geometry" />
        </mxCell>
        <mxCell id="CCW7mKwpKnPQ-he00Y3H-106" style="edgeStyle=orthogonalEdgeStyle;rounded=0;orthogonalLoop=1;jettySize=auto;html=1;exitX=1;exitY=0.5;exitDx=0;exitDy=0;entryX=0;entryY=0.5;entryDx=0;entryDy=0;" parent="1" source="CCW7mKwpKnPQ-he00Y3H-102" target="CCW7mKwpKnPQ-he00Y3H-103" edge="1">
          <mxGeometry relative="1" as="geometry" />
        </mxCell>
        <mxCell id="CCW7mKwpKnPQ-he00Y3H-107" style="edgeStyle=orthogonalEdgeStyle;rounded=0;orthogonalLoop=1;jettySize=auto;html=1;exitX=1;exitY=0.5;exitDx=0;exitDy=0;entryX=0;entryY=0.5;entryDx=0;entryDy=0;" parent="1" source="CCW7mKwpKnPQ-he00Y3H-102" target="CCW7mKwpKnPQ-he00Y3H-104" edge="1">
          <mxGeometry relative="1" as="geometry" />
        </mxCell>
        <mxCell id="CCW7mKwpKnPQ-he00Y3H-102" value="전체 인력 목록" style="ellipse;whiteSpace=wrap;html=1;" parent="1" vertex="1">
          <mxGeometry x="424" y="1760" width="90" height="50" as="geometry" />
        </mxCell>
        <mxCell id="CCW7mKwpKnPQ-he00Y3H-103" value="&lt;font style=&quot;font-size: 10px;&quot;&gt;인력별 현황,&lt;br&gt;비자, ... 등&lt;/font&gt;" style="ellipse;whiteSpace=wrap;html=1;" parent="1" vertex="1">
          <mxGeometry x="570" y="1730" width="90" height="50" as="geometry" />
        </mxCell>
        <mxCell id="CCW7mKwpKnPQ-he00Y3H-104" value="&lt;font style=&quot;font-size: 10px;&quot;&gt;인력 정보 관리&lt;/font&gt;" style="ellipse;whiteSpace=wrap;html=1;" parent="1" vertex="1">
          <mxGeometry x="570" y="1800" width="90" height="50" as="geometry" />
        </mxCell>
        <mxCell id="CCW7mKwpKnPQ-he00Y3H-108" value="" style="endArrow=classic;html=1;rounded=0;entryX=0;entryY=0.5;entryDx=0;entryDy=0;exitX=1;exitY=0.3333333333333333;exitDx=0;exitDy=0;exitPerimeter=0;" parent="1" source="CCW7mKwpKnPQ-he00Y3H-87" target="CCW7mKwpKnPQ-he00Y3H-101" edge="1">
          <mxGeometry width="50" height="50" relative="1" as="geometry">
            <mxPoint x="160" y="1780" as="sourcePoint" />
            <mxPoint x="260" y="1910" as="targetPoint" />
          </mxGeometry>
        </mxCell>
        <mxCell id="CCW7mKwpKnPQ-he00Y3H-114" style="edgeStyle=orthogonalEdgeStyle;rounded=0;orthogonalLoop=1;jettySize=auto;html=1;exitX=1;exitY=0.5;exitDx=0;exitDy=0;entryX=0;entryY=0.5;entryDx=0;entryDy=0;" parent="1" source="CCW7mKwpKnPQ-he00Y3H-109" target="CCW7mKwpKnPQ-he00Y3H-110" edge="1">
          <mxGeometry relative="1" as="geometry" />
        </mxCell>
        <mxCell id="CCW7mKwpKnPQ-he00Y3H-115" style="edgeStyle=orthogonalEdgeStyle;rounded=0;orthogonalLoop=1;jettySize=auto;html=1;exitX=1;exitY=0.5;exitDx=0;exitDy=0;entryX=0;entryY=0.5;entryDx=0;entryDy=0;" parent="1" source="CCW7mKwpKnPQ-he00Y3H-109" target="CCW7mKwpKnPQ-he00Y3H-111" edge="1">
          <mxGeometry relative="1" as="geometry" />
        </mxCell>
        <mxCell id="CCW7mKwpKnPQ-he00Y3H-116" style="edgeStyle=orthogonalEdgeStyle;rounded=0;orthogonalLoop=1;jettySize=auto;html=1;exitX=1;exitY=0.5;exitDx=0;exitDy=0;entryX=0;entryY=0.5;entryDx=0;entryDy=0;" parent="1" source="CCW7mKwpKnPQ-he00Y3H-109" target="CCW7mKwpKnPQ-he00Y3H-112" edge="1">
          <mxGeometry relative="1" as="geometry" />
        </mxCell>
        <mxCell id="CCW7mKwpKnPQ-he00Y3H-109" value="전체 직원 목록" style="ellipse;whiteSpace=wrap;html=1;" parent="1" vertex="1">
          <mxGeometry x="424" y="1960" width="90" height="50" as="geometry" />
        </mxCell>
        <mxCell id="CCW7mKwpKnPQ-he00Y3H-110" value="&lt;font style=&quot;font-size: 10px;&quot;&gt;각 직원별 실적확인&lt;/font&gt;" style="ellipse;whiteSpace=wrap;html=1;" parent="1" vertex="1">
          <mxGeometry x="570" y="1890" width="90" height="50" as="geometry" />
        </mxCell>
        <mxCell id="CCW7mKwpKnPQ-he00Y3H-111" value="&lt;font style=&quot;font-size: 10px;&quot;&gt;직원 권한부여&lt;/font&gt;" style="ellipse;whiteSpace=wrap;html=1;" parent="1" vertex="1">
          <mxGeometry x="570" y="1960" width="90" height="50" as="geometry" />
        </mxCell>
        <mxCell id="CCW7mKwpKnPQ-he00Y3H-112" value="&lt;font style=&quot;font-size: 10px;&quot;&gt;직원 정보 관리&lt;/font&gt;" style="ellipse;whiteSpace=wrap;html=1;" parent="1" vertex="1">
          <mxGeometry x="570" y="2030" width="90" height="50" as="geometry" />
        </mxCell>
        <mxCell id="CCW7mKwpKnPQ-he00Y3H-117" value="수익금 현황" style="ellipse;whiteSpace=wrap;html=1;" parent="1" vertex="1">
          <mxGeometry x="424" y="2140" width="90" height="50" as="geometry" />
        </mxCell>
        <mxCell id="CCW7mKwpKnPQ-he00Y3H-118" value="배치 현황" style="ellipse;whiteSpace=wrap;html=1;" parent="1" vertex="1">
          <mxGeometry x="424" y="2230" width="90" height="50" as="geometry" />
        </mxCell>
        <mxCell id="CCW7mKwpKnPQ-he00Y3H-119" value="예약 현황" style="ellipse;whiteSpace=wrap;html=1;" parent="1" vertex="1">
          <mxGeometry x="424" y="2310" width="90" height="50" as="geometry" />
        </mxCell>
      </root>
    </mxGraphModel>
  </diagram>
</mxfile>
